<svg width="189" height="31" viewBox="0 0 189 31" fill="none" xmlns="http://www.w3.org/2000/svg">
<path d="M23.0986 0.503827C19.166 0.496052 15.2335 0.502531 11.3022 0.502531H10.69C11.5331 2.09639 12.275 3.6151 12.7484 5.24783C11.9922 5.32817 11.2763 5.35539 10.5798 5.48497C3.7315 6.76783 -0.639444 12.6379 0.0765099 19.5654C0.688702 25.4912 5.90271 30.4853 11.8703 30.6667C16.2529 30.8002 20.6407 30.7082 25.0272 30.7159C25.0869 30.7159 25.1453 30.6887 25.2088 30.6732C25.2283 30.427 25.0597 30.2676 24.9637 30.0849C24.3424 28.9005 23.8132 27.6772 23.3645 26.4164C23.2257 26.0263 23.2737 25.8877 23.7263 25.8942C24.2192 25.9007 24.7159 25.8346 25.2075 25.7685C32.1647 24.8368 37.1829 17.8368 35.8223 10.9689C34.5824 4.71525 29.4825 0.516785 23.0986 0.503827ZM11.6809 24.4571C8.31776 24.4701 5.55122 21.7424 5.53695 18.3991C5.52268 14.995 8.24253 12.2673 11.6524 12.266C15.0402 12.2647 17.7432 14.9561 17.751 18.3395C17.7587 21.7113 15.0467 24.4454 11.6809 24.4571ZM25.0986 18.1205C21.7108 18.1166 18.987 15.3578 19.0091 11.9537C19.0311 8.60142 21.7808 5.91259 25.1699 5.92814C28.5357 5.94499 31.2373 8.67788 31.2244 12.0574C31.2127 15.4162 28.4747 18.1244 25.0986 18.1205Z" fill="#2056F2"/>
<path d="M53.5189 4.96222C50.5189 4.7834 47.5112 4.94149 44.5086 4.88318C43.9872 4.87281 44.0313 5.14882 44.0326 5.48573C44.0364 8.78749 44.0351 12.0905 44.0351 15.3923C44.0351 18.6941 44.0416 22.0399 44.0274 25.3637C44.0261 25.7796 44.0779 25.9662 44.5708 25.9623C47.3594 25.9364 50.148 25.9766 52.9353 25.939C54.9301 25.9118 56.8341 25.4453 58.5527 24.3996C61.6811 22.4973 63.0533 19.605 63.2738 16.0402C63.6538 9.91226 59.6551 5.32635 53.5202 4.96093L53.5189 4.96222ZM57.9768 17.2207C57.3815 19.7489 55.5254 21.3103 52.9171 21.4308C51.7952 21.4827 50.6707 21.4347 49.5475 21.4645C49.1467 21.4749 49.0961 21.3 49.0987 20.9643C49.1117 19.1087 49.1052 17.2531 49.1052 15.3975C49.1052 13.5846 49.1182 11.7718 49.0961 9.96021C49.0909 9.5274 49.1765 9.34469 49.6577 9.36931C50.8432 9.43281 52.0364 9.2799 53.2167 9.45225C56.2375 9.89412 57.956 11.7847 58.148 14.8403C58.1986 15.6411 58.161 16.4367 57.9768 17.2194V17.2207Z" fill="black"/>
<path d="M71.7294 9.69328C67.7657 10.3995 64.9654 13.411 64.6956 17.4423C64.4466 21.173 66.3766 24.8751 70.6049 26.0064C72.9045 26.6219 75.1872 26.4327 77.3947 25.5464C78.6425 25.0449 79.6502 24.2091 80.4764 23.1504C80.6762 22.8938 80.78 22.7409 80.3999 22.5258C79.3312 21.9194 78.2897 21.2676 77.2391 20.6287C77.0316 20.503 76.8694 20.3553 76.684 20.6935C75.6866 22.5116 72.492 22.5608 71.1055 21.5747C70.4336 21.0965 69.9654 20.4849 69.6736 19.6206C70.8318 19.57 71.9096 19.5208 72.9888 19.4754C75.5776 19.364 78.1665 19.2551 80.7553 19.1424C81.0043 19.132 81.2261 19.167 81.2754 18.7653C81.9512 13.3462 77.1094 8.73566 71.7294 9.69328ZM76.0731 16.2022C74.9953 16.1957 73.9174 16.3266 72.8409 16.3266C72.8409 16.2838 72.8409 16.3694 72.8409 16.3266C71.8707 16.3719 70.9006 16.3992 69.9317 16.4691C69.5192 16.4989 69.47 16.3719 69.5633 16.0052C69.9563 14.458 71.2041 13.4512 72.8487 13.3864C74.553 13.3203 75.8811 14.2118 76.396 15.7357C76.5167 16.0908 76.4311 16.2048 76.0731 16.2022Z" fill="black"/>
<path d="M97.8404 9.99522C96.5655 10.0134 95.2892 10.0289 94.0155 9.99004C93.4734 9.97319 93.2866 10.0769 93.2944 10.6781C93.3333 13.5484 93.3177 16.4186 93.3087 19.2889C93.3048 20.7194 92.4345 21.6939 91.0726 21.8313C89.2205 22.0192 88.083 21.011 88.0791 19.1554C88.0726 16.2851 88.07 13.4149 88.0856 10.5446C88.0882 10.1378 88.0039 9.98096 87.5538 9.99133C86.2153 10.0237 84.8742 10.025 83.5343 9.99133C83.0544 9.97967 82.9636 10.1546 82.9766 10.5835C83.0052 11.5541 82.9766 12.526 82.9883 13.4965C83.0194 15.978 82.8742 18.4621 83.0622 20.9384C83.3035 24.1119 85.5901 26.2345 88.7691 26.3446C90.546 26.4055 92.1232 25.9053 93.5836 24.686C93.5966 24.9672 93.6316 25.1214 93.6044 25.2652C93.4967 25.86 93.76 25.9831 94.3151 25.9623C95.5019 25.9196 96.6926 25.9377 97.8806 25.9559C98.2334 25.9611 98.3657 25.8807 98.3644 25.4958C98.3515 20.4888 98.3502 15.4817 98.367 10.4747C98.3683 10.0419 98.2049 9.98744 97.8391 9.99392L97.8404 9.99522Z" fill="black"/>
<path d="M170.328 11.1899C170.328 9.26953 170.315 7.35042 170.339 5.4313C170.344 5.00239 170.223 4.86892 169.798 4.88576C169.065 4.91557 168.328 4.91686 167.595 4.88576C167.18 4.86762 167.095 5.02182 167.097 5.40668C167.115 7.34783 167.105 9.28897 167.105 11.2301C167.105 11.4958 167.105 11.7627 167.105 12.1372C166.94 11.9817 166.877 11.9299 166.822 11.869C164.246 8.97279 159.403 8.98186 156.619 11.4556C154.026 13.7583 153.389 16.7296 154.026 19.9989C154.968 24.8311 159.959 27.5899 164.412 25.8198C165.559 25.3636 166.483 24.6147 167.353 23.4977C167.353 24.3374 167.364 24.9606 167.348 25.5839C167.34 25.8651 167.435 25.9623 167.717 25.9545C168.365 25.9377 169.016 25.9131 169.66 25.961C170.195 26.0012 170.341 25.8405 170.339 25.2963C170.315 20.5937 170.326 15.8912 170.326 11.1899H170.328ZM163.746 23.2217C159.94 24.3827 156.536 21.4723 157.049 17.2362C157.496 13.5457 160.833 11.5372 164.122 12.8603C166.052 13.6365 167.227 15.5569 167.231 17.9438C167.235 20.5134 165.908 22.5634 163.747 23.2229L163.746 23.2217Z" fill="black"/>
<path d="M134.953 10.4449C134.953 10.1248 134.895 9.98097 134.533 9.99522C133.821 10.0224 133.108 10.0198 132.394 9.99522C132.049 9.98356 131.948 10.1041 131.96 10.4397C131.983 11.1032 131.966 11.7666 131.966 12.3692C131.572 12.0271 131.188 11.685 130.794 11.3545C127.459 8.55427 121.756 9.71792 119.524 13.6637C118.447 15.5673 118.249 17.6134 118.598 19.7398C119.353 24.3374 123.75 27.2297 128.241 26.0777C129.757 25.6889 130.938 24.7974 131.966 23.4148C131.966 24.2208 131.988 24.8583 131.958 25.4933C131.94 25.8729 132.079 25.9714 132.44 25.9585C133.13 25.9338 133.822 25.9338 134.514 25.9585C134.851 25.9701 134.956 25.8703 134.955 25.5257C134.944 20.4992 134.945 15.4727 134.955 10.4462L134.953 10.4449ZM131.83 17.9736C131.843 20.5627 130.514 22.5634 128.349 23.2346C124.705 24.3646 121.315 21.5138 121.638 17.59C121.846 15.0567 123.332 13.135 125.479 12.6244C128.735 11.8495 131.657 14.0408 131.83 17.3918C131.84 17.5849 131.831 17.7792 131.831 17.9736H131.83Z" fill="black"/>
<path d="M180.597 9.65313C175.702 9.64147 172.157 13.1272 172.152 17.9542C172.148 22.8018 175.671 26.32 180.534 26.3239C185.413 26.3278 188.987 22.82 189 18.0164C189.013 13.1959 185.464 9.66349 180.597 9.65313ZM182.153 23.2269C178.555 24.283 175.361 21.7989 175.372 17.9542C175.37 13.5717 179.235 11.6163 182.55 12.8668C184.48 13.595 185.406 15.1228 185.723 17.0873C186.173 19.8772 184.655 22.4921 182.153 23.2269Z" fill="black"/>
<path d="M151.433 9.99392C150.743 10.0211 150.049 10.038 149.361 9.99003C148.861 9.95504 148.759 10.1235 148.763 10.5978C148.785 13.617 148.782 16.6363 148.772 19.6569C148.765 21.6226 147.359 23.1387 145.348 23.3875C143.051 23.6726 141.361 22.6554 140.837 20.6637C140.709 20.183 140.68 19.6867 140.68 19.1891C140.682 16.3201 140.667 13.4512 140.694 10.5835C140.699 10.082 140.551 9.9667 140.08 9.99262C139.349 10.0328 138.612 10.0147 137.878 9.9978C137.595 9.99133 137.508 10.0833 137.51 10.3658C137.527 13.8166 137.45 17.27 137.564 20.7168C137.664 23.718 139.724 25.8224 142.678 26.2345C145.092 26.5714 147.156 25.8988 148.945 23.9849C148.945 24.5836 148.966 25.0306 148.939 25.4764C148.917 25.8328 149.017 25.974 149.401 25.9572C150.091 25.9274 150.783 25.9299 151.473 25.9572C151.838 25.9714 151.949 25.8652 151.948 25.492C151.936 20.4875 151.934 15.4843 151.951 10.4799C151.952 10.0561 151.809 9.97966 151.432 9.99392H151.433Z" fill="black"/>
<path d="M118.282 23.7232C118.331 23.2191 118.166 23.0753 117.649 23.0791C114.669 23.1051 111.688 23.0688 108.708 23.1102C108.055 23.1193 107.939 22.9198 107.95 22.3198C107.987 20.1856 107.964 18.0501 107.964 15.9145C107.964 12.421 107.957 8.92747 107.973 5.43393C107.974 5.02057 107.883 4.86118 107.442 4.88321C106.754 4.91949 106.059 4.92856 105.371 4.88062C104.843 4.84434 104.73 5.03223 104.734 5.53112C104.756 8.80826 104.746 12.0867 104.746 15.3651C104.746 18.6435 104.759 22.0075 104.733 25.3287C104.729 25.8522 104.886 25.9636 105.383 25.9598C108.946 25.939 112.509 25.9507 116.073 25.9468C118.135 25.9446 118.135 26.0656 118.135 25.8328C118.135 25.0364 118.283 24.5205 118.283 23.7219L118.282 23.7232Z" fill="black"/>
</svg>
