<svg width="24" height="25" viewBox="0 0 24 25" fill="none" xmlns="http://www.w3.org/2000/svg">
<rect y="0.732422" width="24" height="24" rx="12" fill="#2056F2"/>
<path d="M12.2579 6.91357C12.286 6.92528 12.3141 6.93698 12.3431 6.94904C12.3736 6.9619 12.404 6.97475 12.4354 6.988C12.4839 7.00828 12.4839 7.00828 12.5335 7.02897C12.6409 7.07389 12.7482 7.11901 12.8555 7.16413C12.9313 7.19589 13.0071 7.22762 13.0829 7.25935C13.2615 7.33409 13.44 7.40898 13.6184 7.48394C13.8245 7.57048 14.0306 7.65688 14.2366 7.74328C14.4535 7.83419 14.6703 7.92511 14.8871 8.0161C15.3898 8.22704 15.8928 8.43705 16.3961 8.64659C16.9239 8.8664 17.4517 9.08636 17.9791 9.30716C18.0462 9.33525 18.1133 9.36332 18.1804 9.39137C18.2729 9.42999 18.3652 9.46868 18.4576 9.50739C18.4847 9.51869 18.5118 9.53 18.5397 9.54164C18.9118 9.69787 18.9118 9.69787 19 9.78416C18.9998 9.87312 18.9998 9.87312 18.9688 9.96708C18.8873 10.0239 18.8873 10.0239 18.7858 10.0681C18.7524 10.083 18.7191 10.098 18.6847 10.1134C18.5949 10.15 18.5949 10.15 18.5014 10.1805C18.5014 10.2249 18.5014 10.2249 18.5013 10.2702C18.5008 10.5488 18.4994 10.8273 18.4973 11.1059C18.4962 11.2492 18.4955 11.3924 18.4953 11.5356C18.4952 11.6738 18.4943 11.812 18.4929 11.9502C18.4925 12.0029 18.4924 12.0557 18.4925 12.1085C18.4927 12.1823 18.4919 12.256 18.4908 12.3298C18.4912 12.3627 18.4912 12.3627 18.4916 12.3962C18.4902 12.4572 18.4902 12.4572 18.4703 12.5585C18.3983 12.6155 18.3983 12.6155 18.3145 12.65C18.295 12.659 18.2756 12.6679 18.2556 12.6772C18.2279 12.6883 18.2279 12.6883 18.1996 12.6996C18.1784 12.7081 18.1572 12.7166 18.1353 12.7254C18.1129 12.7343 18.0904 12.7432 18.0672 12.7523C18.0437 12.7616 18.0202 12.771 17.9959 12.7806C17.9463 12.8002 17.8967 12.8198 17.847 12.8392C17.7713 12.869 17.6958 12.8993 17.6203 12.9296C17.572 12.9486 17.5236 12.9677 17.4752 12.9867C17.4416 13.0002 17.4416 13.0002 17.4073 13.0141C17.2795 13.0636 17.1769 13.0901 17.0369 13.0768C16.9776 13.0188 17.0003 12.9156 16.9993 12.8386C16.999 12.8169 16.9987 12.7951 16.9984 12.7728C16.9974 12.7007 16.9966 12.6286 16.9958 12.5565C16.9952 12.5066 16.9945 12.4568 16.9939 12.4069C16.9922 12.2755 16.9906 12.144 16.9891 12.0125C16.9876 11.8785 16.9858 11.7444 16.9841 11.6104C16.9807 11.3472 16.9776 11.084 16.9745 10.8207C16.9367 10.8365 16.8989 10.8523 16.8599 10.8685C16.1469 11.1654 15.434 11.4622 14.7208 11.7587C14.6701 11.7798 14.6193 11.8009 14.5686 11.8219C14.5436 11.8323 14.5186 11.8427 14.4929 11.8534C14.2827 11.9408 14.0725 12.0283 13.8624 12.1158C13.7307 12.1707 13.5989 12.2255 13.4671 12.2801C13.4161 12.3012 13.3652 12.3223 13.3142 12.3434C13.2894 12.3537 13.2645 12.3641 13.2389 12.3747C13.0925 12.4354 12.9464 12.4969 12.8006 12.5591C12.7108 12.5972 12.6209 12.6351 12.531 12.6729C12.4895 12.6904 12.448 12.7081 12.4067 12.726C12.3502 12.7504 12.2936 12.7742 12.2369 12.7979C12.2053 12.8114 12.1738 12.8248 12.1412 12.8387C11.9528 12.8904 11.7944 12.8104 11.6225 12.7369C11.599 12.7271 11.5754 12.7172 11.5512 12.707C11.5 12.6855 11.4489 12.664 11.3977 12.6423C11.315 12.6073 11.2322 12.5725 11.1493 12.5377C11.0615 12.5009 10.9737 12.464 10.8859 12.4271C10.601 12.3074 10.3153 12.1894 10.0295 12.0717C9.2959 11.7695 8.56368 11.4641 7.83147 11.1587C7.54036 11.0373 7.24916 10.9161 6.95791 10.795C6.88335 10.764 6.8088 10.733 6.73425 10.702C6.49739 10.6035 6.26048 10.5051 6.02344 10.407C5.90628 10.3585 5.78913 10.3099 5.67199 10.2614C5.61583 10.2381 5.55966 10.2149 5.50348 10.1916C5.42623 10.1597 5.34901 10.1277 5.27181 10.0957C5.23709 10.0814 5.23709 10.0814 5.20168 10.0668C5.04347 10.001 5.04347 10.001 5.00876 9.96708C4.99708 9.86419 4.99708 9.86419 5.00876 9.75367C5.12019 9.67394 5.24648 9.62446 5.37284 9.57122C5.40398 9.55806 5.40398 9.55806 5.43575 9.54462C5.50566 9.51511 5.57563 9.48576 5.64561 9.45642C5.69618 9.43512 5.74675 9.41382 5.79732 9.39251C6.32032 9.17237 6.84431 8.95447 7.36822 8.73642C7.79728 8.55784 8.22611 8.37873 8.65459 8.19881C9.33662 7.9125 10.0192 7.62752 10.7023 7.34374C10.88 7.26986 11.0575 7.19555 11.2347 7.12045C11.326 7.08179 11.4174 7.04342 11.5088 7.0051C11.5491 6.98814 11.5893 6.97105 11.6294 6.9538C11.6829 6.93082 11.7366 6.90836 11.7903 6.88594C11.8192 6.87363 11.8482 6.86133 11.878 6.84866C12.0153 6.8111 12.1306 6.86021 12.2579 6.91357ZM11.7826 8.49191C11.7548 8.50275 11.727 8.5136 11.6983 8.52477C11.6535 8.54275 11.6535 8.54275 11.6077 8.56108C11.5604 8.57966 11.5604 8.57966 11.5122 8.59861C11.4093 8.63912 11.3066 8.68001 11.2039 8.72091C11.133 8.74892 11.0621 8.77692 10.9912 8.8049C10.5442 8.98149 10.098 9.15981 9.65269 9.34047C9.38914 9.44738 9.12494 9.55245 8.85873 9.65289C8.7303 9.70139 8.7303 9.70139 8.62343 9.78416C8.62198 9.86096 8.62198 9.86096 8.65459 9.9366C8.71727 9.98615 8.71727 9.98615 8.80248 10.0209C8.83658 10.0363 8.87068 10.0518 8.90581 10.0677C8.94665 10.0851 8.98756 10.1024 9.02852 10.1195C9.05144 10.1291 9.07437 10.1388 9.09798 10.1487C9.29282 10.2298 9.4888 10.308 9.68484 10.3863C9.81252 10.4375 9.94015 10.4887 10.0678 10.54C10.1002 10.5531 10.1327 10.5661 10.1661 10.5795C10.3933 10.6708 10.6199 10.7633 10.8463 10.8566C10.877 10.8692 10.9076 10.8818 10.9392 10.8948C11.0577 10.9436 11.1762 10.9924 11.2945 11.0415C11.3756 11.0751 11.4567 11.1085 11.5378 11.1419C11.5733 11.1567 11.5733 11.1567 11.6094 11.1718C11.6532 11.1898 11.6973 11.2073 11.7415 11.2243C11.797 11.2457 11.8518 11.269 11.9064 11.2925C12.0789 11.3169 12.1998 11.2525 12.3557 11.1836C12.3886 11.1697 12.4216 11.1558 12.4555 11.1414C12.5638 11.0954 12.6716 11.0486 12.7795 11.0018C12.8544 10.9698 12.9293 10.9378 13.0042 10.906C13.1397 10.8484 13.275 10.7905 13.4102 10.7324C13.6565 10.6266 13.9037 10.5229 14.1513 10.4201C14.1867 10.4054 14.2221 10.3907 14.2585 10.3755C14.3951 10.3188 14.5316 10.262 14.6682 10.2054C14.7618 10.1665 14.8552 10.1275 14.9486 10.0884C14.9763 10.077 15.0041 10.0655 15.0326 10.0537C15.0578 10.0431 15.083 10.0325 15.109 10.0217C15.1419 10.008 15.1419 10.008 15.1754 9.994C15.2355 9.96758 15.2355 9.96758 15.2919 9.90611C15.2914 9.82877 15.2914 9.82877 15.2607 9.75367C15.2083 9.71134 15.2083 9.71134 15.1376 9.68579C15.11 9.67414 15.0824 9.66249 15.0539 9.65049C15.0225 9.63801 14.9911 9.62553 14.9588 9.61267C14.9254 9.59881 14.8919 9.58495 14.8574 9.57067C14.7564 9.52907 14.6552 9.48809 14.5538 9.44736C14.4758 9.41593 14.3978 9.3843 14.3198 9.35263C14.0764 9.2538 13.8331 9.15508 13.5893 9.05717C13.3078 8.94407 13.0264 8.83064 12.7465 8.71364C12.7125 8.69945 12.7125 8.69945 12.6777 8.68497C12.5739 8.6417 12.4701 8.59818 12.3666 8.55419C12.3309 8.53929 12.2952 8.52439 12.2584 8.50904C12.2279 8.49612 12.1974 8.48321 12.1659 8.4699C12.0247 8.42398 11.9188 8.43802 11.7826 8.49191Z" fill="white"/>
<path d="M8.39571 11.6146C8.43464 11.6288 8.4734 11.6435 8.51199 11.6586C8.53278 11.6665 8.55357 11.6743 8.575 11.6824C8.61854 11.6989 8.66201 11.7156 8.70539 11.7325C8.77157 11.7582 8.83802 11.7832 8.90454 11.808C8.94704 11.8242 8.98952 11.8405 9.03199 11.8568C9.07022 11.8715 9.10845 11.8862 9.14784 11.9013C9.24546 11.9482 9.303 11.9888 9.37135 12.0707C9.40269 12.1627 9.40647 12.2239 9.4066 12.3201C9.40672 12.3528 9.40685 12.3855 9.40698 12.4192C9.40696 12.455 9.40695 12.4909 9.40693 12.5279C9.40704 12.5657 9.40715 12.6034 9.40726 12.6424C9.40749 12.7246 9.40766 12.8068 9.40776 12.889C9.40795 13.019 9.40846 13.1491 9.40905 13.2791C9.40925 13.3236 9.40945 13.3682 9.40964 13.4127C9.40974 13.435 9.40984 13.4573 9.40994 13.4803C9.41125 13.783 9.41228 14.0858 9.41266 14.3885C9.41293 14.5928 9.41363 14.797 9.41483 15.0012C9.41544 15.1093 9.41583 15.2173 9.41567 15.3253C9.4155 15.4459 9.41629 15.5665 9.41715 15.687C9.41695 15.7227 9.41674 15.7584 9.41653 15.7952C9.41877 15.985 9.42521 16.1046 9.55831 16.2475C9.71223 16.3516 9.85557 16.3532 10.0362 16.3546C10.0605 16.3551 10.0848 16.3556 10.1099 16.3561C10.2 16.3579 10.2901 16.3589 10.3802 16.3599C10.4893 16.3616 10.5984 16.3633 10.7074 16.365C10.7616 16.3659 10.8158 16.3667 10.87 16.3676C10.9303 16.3685 10.9303 16.3685 10.9917 16.3695C10.9916 16.3393 10.9916 16.3092 10.9915 16.2782C10.9909 15.9951 10.9904 15.712 10.9901 15.4289C10.9899 15.2834 10.9897 15.1378 10.9894 14.9923C10.989 14.8519 10.9888 14.7116 10.9888 14.5712C10.9887 14.5175 10.9886 14.4639 10.9884 14.4102C10.9882 14.3353 10.9882 14.2604 10.9882 14.1855C10.9881 14.1631 10.988 14.1407 10.9878 14.1176C10.9882 13.9644 10.9882 13.9644 11.0229 13.9304C11.0829 13.9274 11.1431 13.9265 11.2033 13.9265C11.2418 13.9264 11.2804 13.9263 11.3202 13.9262C11.3626 13.9263 11.405 13.9263 11.4474 13.9264C11.4906 13.9264 11.5338 13.9264 11.577 13.9263C11.6677 13.9263 11.7583 13.9263 11.8489 13.9265C11.9654 13.9266 12.0818 13.9265 12.1982 13.9264C12.2874 13.9263 12.3767 13.9263 12.4659 13.9264C12.5088 13.9264 12.5518 13.9264 12.5947 13.9263C12.6546 13.9262 12.7145 13.9264 12.7745 13.9265C12.8257 13.9265 12.8257 13.9265 12.878 13.9266C12.9548 13.9304 12.9548 13.9304 12.986 13.9609C12.989 14.0361 12.9899 14.1103 12.9895 14.1855C12.9896 14.209 12.9896 14.2325 12.9896 14.2567C12.9895 14.3347 12.9893 14.4127 12.9891 14.4908C12.989 14.5447 12.989 14.5987 12.9889 14.6526C12.9888 14.7949 12.9885 14.9372 12.9881 15.0795C12.9878 15.2246 12.9877 15.3697 12.9875 15.5148C12.9872 15.7997 12.9867 16.0846 12.986 16.3695C13.0262 16.3688 13.0663 16.3682 13.1077 16.3676C13.1335 16.3672 13.1594 16.3668 13.186 16.3663C13.2424 16.3655 13.2988 16.3646 13.3553 16.3637C13.4717 16.3618 13.5881 16.36 13.7045 16.3586C13.7835 16.3577 13.8625 16.3562 13.9415 16.3546C13.9675 16.3544 13.9934 16.3542 14.0202 16.354C14.2143 16.3493 14.3512 16.316 14.4915 16.1751C14.5748 16.0482 14.5791 15.9265 14.5789 15.7783C14.5789 15.7458 14.579 15.7132 14.579 15.6796C14.5789 15.6442 14.5788 15.6088 14.5786 15.5723C14.5787 15.4945 14.5787 15.4167 14.5787 15.3389C14.5787 15.2973 14.5786 15.2557 14.5786 15.2141C14.5785 15.0852 14.5787 14.9563 14.5791 14.8274C14.5792 14.8057 14.5792 14.7839 14.5793 14.7614C14.5794 14.7169 14.5796 14.6724 14.5797 14.6279C14.5806 14.328 14.5812 14.028 14.5807 13.7281C14.5803 13.5256 14.5806 13.3231 14.5817 13.1205C14.5822 13.0134 14.5824 12.9063 14.5818 12.7992C14.5811 12.6798 14.5819 12.5604 14.5828 12.441C14.5824 12.4056 14.5819 12.3702 14.5815 12.3337C14.5849 12.1006 14.5849 12.1006 14.6459 12.0158C14.752 11.926 14.8781 11.877 15.0084 11.83C15.0284 11.8228 15.0484 11.8156 15.0689 11.8081C15.1108 11.7931 15.1528 11.7782 15.1949 11.7635C15.2587 11.7411 15.3223 11.7179 15.3858 11.6947C15.4268 11.68 15.4679 11.6654 15.5089 11.6509C15.5458 11.6378 15.5826 11.6247 15.6206 11.6113C15.768 11.5724 15.8918 11.5604 16.0339 11.6191C16.1158 11.6855 16.1326 11.7282 16.1644 11.8268C16.1723 11.9176 16.1723 11.9176 16.1723 12.0202C16.1725 12.0592 16.1727 12.0982 16.1729 12.1384C16.1727 12.1814 16.1726 12.2244 16.1725 12.2675C16.1726 12.313 16.1727 12.3584 16.1728 12.4039C16.1731 12.5273 16.173 12.6507 16.1728 12.7741C16.1726 12.9035 16.1728 13.0329 16.1729 13.1623C16.173 13.3797 16.1728 13.5971 16.1725 13.8145C16.1722 14.0653 16.1723 14.3161 16.1727 14.5669C16.1729 14.7826 16.173 14.9983 16.1728 15.214C16.1727 15.3426 16.1727 15.4713 16.1729 15.6C16.1731 15.7211 16.173 15.8422 16.1726 15.9634C16.1725 16.0077 16.1725 16.0519 16.1727 16.0962C16.174 16.5502 16.1169 16.9801 15.7848 17.3271C15.3834 17.6708 14.9851 17.6941 14.478 17.6927C14.4177 17.6929 14.3575 17.6931 14.2973 17.6934C14.1344 17.6939 13.9715 17.6939 13.8086 17.6937C13.6724 17.6936 13.5361 17.6938 13.3998 17.694C13.0781 17.6944 12.7564 17.6944 12.4348 17.694C12.1036 17.6937 11.7724 17.6941 11.4412 17.6949C11.1563 17.6956 10.8713 17.6958 10.5863 17.6956C10.4164 17.6955 10.2465 17.6956 10.0766 17.6961C9.91672 17.6966 9.75687 17.6965 9.59701 17.6959C9.53858 17.6958 9.48014 17.6959 9.42171 17.6962C8.98972 17.6984 8.61709 17.6704 8.28072 17.3755C8.26188 17.3603 8.24304 17.345 8.22363 17.3292C8.03321 17.1624 7.89361 16.9208 7.84446 16.6743C7.84141 16.6077 7.84013 16.541 7.83988 16.4743C7.83976 16.4543 7.83965 16.4343 7.83953 16.4136C7.83919 16.3465 7.83907 16.2794 7.83895 16.2123C7.83875 16.1642 7.83855 16.1161 7.83833 16.0679C7.83767 15.91 7.83735 15.752 7.83704 15.594C7.83691 15.5397 7.83678 15.4853 7.83665 15.4309C7.83606 15.1754 7.83562 14.9199 7.83536 14.6645C7.83505 14.3696 7.83423 14.0746 7.83297 13.7797C7.83203 13.5517 7.83157 13.3237 7.83147 13.0958C7.8314 12.9596 7.83112 12.8234 7.83033 12.6873C7.82961 12.5592 7.82948 12.4312 7.8298 12.3031C7.82981 12.2561 7.82961 12.2091 7.82919 12.1622C7.82864 12.098 7.82886 12.0339 7.82927 11.9697C7.82915 11.9158 7.82915 11.9158 7.82904 11.8609C7.84766 11.7461 7.88691 11.6957 7.96911 11.6134C8.10437 11.5472 8.25613 11.5761 8.39571 11.6146Z" fill="white"/>
</svg>
